<svg version="1.1" id="Layer_1" xmlns="http://www.w3.org/2000/svg" xmlns:xlink="http://www.w3.org/1999/xlink" x="0px" y="0px"
	 width="100%" viewBox="0 0 827 454" enable-background="new 0 0 827 454" xml:space="preserve">
<path fill="#FFFFFF" opacity="1.000000" stroke="none" 
	d="
M609.000000,455.000000 
	C406.000000,455.000000 203.500000,455.000000 1.000000,455.000000 
	C1.000000,303.666656 1.000000,152.333328 1.000000,1.000000 
	C276.666656,1.000000 552.333313,1.000000 828.000000,1.000000 
	C828.000000,152.333328 828.000000,303.666656 828.000000,455.000000 
	C755.166687,455.000000 682.333313,455.000000 609.000000,455.000000 
M127.500000,445.999725 
	C208.953278,445.999725 290.406555,445.999725 371.671814,445.999725 
	C372.883026,441.356720 371.344177,438.454926 368.108551,435.644440 
	C362.008728,430.346130 356.382904,424.505676 350.482239,418.973572 
	C345.253662,414.071594 342.828156,408.148499 342.677399,400.953369 
	C342.457001,390.430878 347.008636,382.768433 356.144684,378.117645 
	C364.665039,373.780304 373.257050,374.474915 381.271362,379.847870 
	C384.250549,381.845184 387.051025,384.108978 389.987152,386.291504 
	C390.871246,385.510590 391.476166,384.959290 392.098846,384.428864 
	C398.337524,379.114349 405.190643,374.460846 413.664246,375.281311 
	C424.495026,376.330048 432.377533,382.383026 435.867340,392.851807 
	C439.262115,403.035553 436.249725,411.869049 428.572296,419.244202 
	C422.445984,425.129303 416.247467,430.954193 410.413391,437.120270 
	C408.425262,439.221558 407.449066,442.280273 405.576538,445.692261 
	C529.113342,445.692261 651.000916,445.692261 773.058716,445.692261 
	C773.058716,443.567291 773.058716,441.748932 773.058716,439.930573 
	C773.058716,396.099335 773.046082,352.268036 773.106506,308.436890 
	C773.108826,306.740295 773.236389,304.435303 774.282104,303.446869 
	C781.429504,296.691162 789.008850,290.390350 796.116333,283.595032 
	C803.691406,276.352814 811.627808,269.300720 818.075623,261.117065 
	C825.375854,251.851761 824.873779,240.904373 819.138062,230.967545 
	C813.145630,220.585739 803.500427,215.193939 791.406982,217.071579 
	C785.074585,218.054749 779.101318,221.350540 772.900269,223.625961 
	C772.900269,174.080490 772.900269,123.682442 772.900269,72.741730 
	C652.561340,72.741730 532.586243,72.741730 415.271698,72.741730 
	C420.328217,66.951782 426.258453,59.935234 432.443817,53.151302 
	C437.267334,47.861031 440.611938,41.874187 440.940399,34.733940 
	C441.500793,22.551521 436.684601,12.850945 425.741455,7.056046 
	C414.647003,1.181036 403.743256,2.422879 394.006653,10.231281 
	C390.569885,12.987438 388.671906,12.634522 385.369934,10.053283 
	C372.476471,-0.025791 356.394684,1.589730 345.604736,13.443100 
	C335.640045,24.389889 336.847778,44.146347 347.710632,53.418255 
	C354.543884,59.250710 360.502441,66.107933 367.417419,73.073578 
	C246.200378,73.073578 125.794334,73.073578 5.194682,73.073578 
	C5.194682,125.844017 5.194682,178.283188 5.194682,232.147125 
	C8.159472,230.030533 10.499717,228.478836 12.710382,226.760422 
	C20.990883,220.323822 33.314819,219.040375 40.927143,223.505692 
	C57.412769,233.176025 58.065994,253.742447 45.099705,264.688446 
	C34.723454,273.447968 25.481794,283.541290 15.544173,292.836914 
	C12.576139,295.613220 8.959453,297.696045 5.286816,300.351990 
	C5.286816,348.279724 5.286816,397.030121 5.286816,445.999725 
	C45.881935,445.999725 86.190971,445.999725 127.500000,445.999725 
z"/>
<path fill="#000000" opacity="1.000000" stroke="none" 
	d="
M127.000000,445.999725 
	C86.190971,445.999725 45.881935,445.999725 5.286816,445.999725 
	C5.286816,397.030121 5.286816,348.279724 5.286816,300.351990 
	C8.959453,297.696045 12.576139,295.613220 15.544173,292.836914 
	C25.481794,283.541290 34.723454,273.447968 45.099705,264.688446 
	C58.065994,253.742447 57.412769,233.176025 40.927143,223.505692 
	C33.314819,219.040375 20.990883,220.323822 12.710382,226.760422 
	C10.499717,228.478836 8.159472,230.030533 5.194682,232.147125 
	C5.194682,178.283188 5.194682,125.844017 5.194682,73.073578 
	C125.794334,73.073578 246.200378,73.073578 367.417419,73.073578 
	C360.502441,66.107933 354.543884,59.250710 347.710632,53.418255 
	C336.847778,44.146347 335.640045,24.389889 345.604736,13.443100 
	C356.394684,1.589730 372.476471,-0.025791 385.369934,10.053283 
	C388.671906,12.634522 390.569885,12.987438 394.006653,10.231281 
	C403.743256,2.422879 414.647003,1.181036 425.741455,7.056046 
	C436.684601,12.850945 441.500793,22.551521 440.940399,34.733940 
	C440.611938,41.874187 437.267334,47.861031 432.443817,53.151302 
	C426.258453,59.935234 420.328217,66.951782 415.271698,72.741730 
	C532.586243,72.741730 652.561340,72.741730 772.900269,72.741730 
	C772.900269,123.682442 772.900269,174.080490 772.900269,223.625961 
	C779.101318,221.350540 785.074585,218.054749 791.406982,217.071579 
	C803.500427,215.193939 813.145630,220.585739 819.138062,230.967545 
	C824.873779,240.904373 825.375854,251.851761 818.075623,261.117065 
	C811.627808,269.300720 803.691406,276.352814 796.116333,283.595032 
	C789.008850,290.390350 781.429504,296.691162 774.282104,303.446869 
	C773.236389,304.435303 773.108826,306.740295 773.106506,308.436890 
	C773.046082,352.268036 773.058716,396.099335 773.058716,439.930573 
	C773.058716,441.748932 773.058716,443.567291 773.058716,445.692261 
	C651.000916,445.692261 529.113342,445.692261 405.576538,445.692261 
	C407.449066,442.280273 408.425262,439.221558 410.413391,437.120270 
	C416.247467,430.954193 422.445984,425.129303 428.572296,419.244202 
	C436.249725,411.869049 439.262115,403.035553 435.867340,392.851807 
	C432.377533,382.383026 424.495026,376.330048 413.664246,375.281311 
	C405.190643,374.460846 398.337524,379.114349 392.098846,384.428864 
	C391.476166,384.959290 390.871246,385.510590 389.987152,386.291504 
	C387.051025,384.108978 384.250549,381.845184 381.271362,379.847870 
	C373.257050,374.474915 364.665039,373.780304 356.144684,378.117645 
	C347.008636,382.768433 342.457001,390.430878 342.677399,400.953369 
	C342.828156,408.148499 345.253662,414.071594 350.482239,418.973572 
	C356.382904,424.505676 362.008728,430.346130 368.108551,435.644440 
	C371.344177,438.454926 372.883026,441.356720 371.671814,445.999725 
	C290.406555,445.999725 208.953278,445.999725 127.000000,445.999725 
M393.212524,66.979607 
	C397.045288,68.803848 400.054626,66.672821 401.346130,63.806755 
	C402.256226,61.787102 401.420288,58.381638 400.253540,56.184643 
	C398.947479,53.725437 396.228180,52.061676 394.410522,49.819366 
	C391.218750,45.881989 385.098541,45.958687 383.502594,50.478439 
	C382.610474,53.004990 381.723694,54.273857 379.268982,55.586361 
	C376.423157,57.108002 374.764709,60.250431 376.974670,63.908798 
	C378.903290,67.101463 381.114899,68.225945 384.970428,66.782967 
	C387.142517,65.970039 389.914062,66.758911 393.212524,66.979607 
M768.092896,256.429779 
	C765.908203,259.368591 764.622681,262.798309 760.987793,264.861206 
	C758.273682,266.401550 758.278320,269.968719 760.339111,272.635376 
	C762.354004,275.242554 764.554993,276.335968 768.271057,274.610992 
	C770.543030,273.556305 773.952087,274.560150 776.750427,275.130188 
	C780.174744,275.827698 784.217407,274.117462 784.999268,270.995636 
	C786.844055,263.630188 778.250000,262.542358 776.412537,257.195862 
	C775.994873,255.980698 772.578186,255.722717 770.496399,255.208023 
	C770.013550,255.088654 769.344543,255.722824 768.092896,256.429779 
M379.387329,39.827751 
	C380.651489,40.859077 381.915649,41.890400 383.179810,42.921722 
	C384.583344,40.826656 386.819153,38.851444 387.143219,36.600918 
	C387.434570,34.577778 385.627136,32.252403 384.745483,30.060352 
	C383.224304,31.204239 381.255402,32.066269 380.307983,33.571327 
	C379.361481,35.074936 379.437286,37.222095 379.387329,39.827751 
M769.047668,239.316330 
	C767.692139,239.072556 765.290771,238.345734 765.145203,238.660843 
	C763.895081,241.367462 762.654785,244.212891 762.291931,247.126465 
	C762.154541,248.230026 764.122498,250.062454 765.522217,250.691360 
	C766.208984,250.999908 768.163330,249.569366 768.892212,248.486954 
	C770.658997,245.863464 771.604431,242.955154 769.047668,239.316330 
M399.177124,41.266483 
	C399.453094,39.227001 400.429291,36.941124 399.821136,35.212753 
	C399.119995,33.220222 397.020203,31.719856 395.527802,30.005762 
	C394.378845,31.550180 392.650208,32.942268 392.196381,34.669342 
	C391.106018,38.819027 395.133057,43.056828 399.177124,41.266483 
M781.073669,239.551651 
	C778.628723,236.923294 776.521179,237.202209 776.145813,240.824707 
	C775.859375,243.589722 776.220276,246.687775 777.258545,249.245850 
	C778.210022,251.590057 782.426514,251.010452 782.716125,248.498840 
	C783.030640,245.772064 782.080139,242.899414 781.073669,239.551651 
M374.642212,52.982449 
	C374.808716,52.978596 375.025726,53.042297 375.134430,52.961079 
	C378.445526,50.486698 378.984039,47.412937 376.499573,44.198288 
	C375.974792,43.519291 373.417175,43.336189 372.881531,43.920128 
	C369.997742,47.064209 370.497772,50.124928 374.642212,52.982449 
M761.015869,257.178162 
	C760.894958,254.364960 760.845398,251.126373 757.070435,251.295654 
	C755.989868,251.344101 754.132812,254.274902 754.255005,255.749573 
	C754.402527,257.529999 756.277039,259.167267 757.404114,260.866547 
	C758.496826,259.878632 759.589478,258.890717 761.015869,257.178162 
M405.311218,43.024734 
	C401.737732,44.177799 400.097900,49.945625 402.942139,52.016289 
	C403.714722,52.578747 406.213013,52.138916 406.799408,51.338577 
	C408.745483,48.682636 408.226807,45.882076 405.311218,43.024734 
M790.569031,257.882385 
	C790.586914,256.627411 791.020874,255.161240 790.518066,254.170563 
	C789.879822,252.913086 788.481384,252.041428 787.410706,251.003403 
	C786.546875,252.350510 785.503296,253.621857 784.890808,255.074921 
	C784.556519,255.867966 784.721069,257.067078 785.077393,257.906189 
	C785.532776,258.978912 786.408386,259.873260 787.102966,260.844452 
	C788.099182,260.069214 789.095459,259.293976 790.569031,257.882385 
z"/>
<path fill="#FDFDFD" opacity="1.000000" stroke="none" 
	d="
M392.814056,66.902908 
	C389.914062,66.758911 387.142517,65.970039 384.970428,66.782967 
	C381.114899,68.225945 378.903290,67.101463 376.974670,63.908798 
	C374.764709,60.250431 376.423157,57.108002 379.268982,55.586361 
	C381.723694,54.273857 382.610474,53.004990 383.502594,50.478439 
	C385.098541,45.958687 391.218750,45.881989 394.410522,49.819366 
	C396.228180,52.061676 398.947479,53.725437 400.253540,56.184643 
	C401.420288,58.381638 402.256226,61.787102 401.346130,63.806755 
	C400.054626,66.672821 397.045288,68.803848 392.814056,66.902908 
z"/>
<path fill="#FDFDFD" opacity="1.000000" stroke="none" 
	d="
M768.427002,256.220032 
	C769.344543,255.722824 770.013550,255.088654 770.496399,255.208023 
	C772.578186,255.722717 775.994873,255.980698 776.412537,257.195862 
	C778.250000,262.542358 786.844055,263.630188 784.999268,270.995636 
	C784.217407,274.117462 780.174744,275.827698 776.750427,275.130188 
	C773.952087,274.560150 770.543030,273.556305 768.271057,274.610992 
	C764.554993,276.335968 762.354004,275.242554 760.339111,272.635376 
	C758.278320,269.968719 758.273682,266.401550 760.987793,264.861206 
	C764.622681,262.798309 765.908203,259.368591 768.427002,256.220032 
z"/>
<path fill="#F9F9F9" opacity="1.000000" stroke="none" 
	d="
M379.226135,39.457443 
	C379.437286,37.222095 379.361481,35.074936 380.307983,33.571327 
	C381.255402,32.066269 383.224304,31.204239 384.745483,30.060349 
	C385.627136,32.252403 387.434570,34.577778 387.143219,36.600918 
	C386.819153,38.851444 384.583344,40.826656 383.179810,42.921722 
	C381.915649,41.890400 380.651489,40.859077 379.226135,39.457443 
z"/>
<path fill="#F6F6F6" opacity="1.000000" stroke="none" 
	d="
M769.275635,239.633331 
	C771.604431,242.955154 770.658997,245.863464 768.892212,248.486954 
	C768.163330,249.569366 766.208984,250.999908 765.522217,250.691360 
	C764.122498,250.062454 762.154541,248.230026 762.291931,247.126465 
	C762.654785,244.212891 763.895081,241.367462 765.145203,238.660843 
	C765.290771,238.345734 767.692139,239.072556 769.275635,239.633331 
z"/>
<path fill="#FDFDFD" opacity="1.000000" stroke="none" 
	d="
M398.919189,41.580658 
	C395.133057,43.056828 391.106018,38.819027 392.196381,34.669342 
	C392.650208,32.942268 394.378845,31.550180 395.527802,30.005764 
	C397.020203,31.719856 399.119995,33.220222 399.821136,35.212753 
	C400.429291,36.941124 399.453094,39.227001 398.919189,41.580658 
z"/>
<path fill="#FBFBFB" opacity="1.000000" stroke="none" 
	d="
M781.377441,239.821014 
	C782.080139,242.899414 783.030640,245.772064 782.716125,248.498840 
	C782.426514,251.010452 778.210022,251.590057 777.258545,249.245850 
	C776.220276,246.687775 775.859375,243.589722 776.145813,240.824707 
	C776.521179,237.202209 778.628723,236.923294 781.377441,239.821014 
z"/>
<path fill="#F9F9F9" opacity="1.000000" stroke="none" 
	d="
M374.287354,52.830421 
	C370.497772,50.124928 369.997742,47.064209 372.881531,43.920128 
	C373.417175,43.336189 375.974792,43.519291 376.499573,44.198288 
	C378.984039,47.412937 378.445526,50.486698 375.134430,52.961079 
	C375.025726,53.042297 374.808716,52.978596 374.287354,52.830421 
z"/>
<path fill="#F6F6F6" opacity="1.000000" stroke="none" 
	d="
M760.848999,257.540466 
	C759.589478,258.890717 758.496826,259.878632 757.404114,260.866516 
	C756.277039,259.167267 754.402527,257.529999 754.255005,255.749573 
	C754.132812,254.274902 755.989868,251.344101 757.070435,251.295654 
	C760.845398,251.126373 760.894958,254.364960 760.848999,257.540466 
z"/>
<path fill="#F9F9F9" opacity="1.000000" stroke="none" 
	d="
M405.646881,43.237549 
	C408.226807,45.882076 408.745483,48.682636 406.799408,51.338577 
	C406.213013,52.138916 403.714722,52.578747 402.942139,52.016289 
	C400.097900,49.945625 401.737732,44.177799 405.646881,43.237549 
z"/>
<path fill="#F9F9F9" opacity="1.000000" stroke="none" 
	d="
M790.330322,258.200562 
	C789.095459,259.293976 788.099182,260.069214 787.102966,260.844452 
	C786.408386,259.873260 785.532776,258.978912 785.077393,257.906189 
	C784.721069,257.067078 784.556519,255.867966 784.890808,255.074921 
	C785.503296,253.621857 786.546875,252.350510 787.410706,251.003403 
	C788.481384,252.041428 789.879822,252.913086 790.518066,254.170563 
	C791.020874,255.161240 790.586914,256.627411 790.330322,258.200562 
z"/>
</svg>