<svg version="1.1" id="Layer_1" xmlns="http://www.w3.org/2000/svg" xmlns:xlink="http://www.w3.org/1999/xlink" x="0px" y="0px"
	 width="100%" viewBox="0 0 838 465" enable-background="new 0 0 838 465" xml:space="preserve">
<path fill="#FFFFFF" opacity="1.000000" stroke="none" 
	d="
M616.000000,466.000000 
	C410.666718,466.000000 205.833405,466.000000 1.000082,466.000000 
	C1.000055,311.000061 1.000055,156.000122 1.000027,1.000145 
	C280.333221,1.000097 559.666443,1.000097 838.999756,1.000048 
	C838.999817,155.999863 838.999817,310.999725 838.999878,465.999786 
	C764.833313,466.000000 690.666687,466.000000 616.000000,466.000000 
M326.500000,457.999817 
	C344.289398,457.999817 362.078766,457.999817 379.659698,457.999817 
	C380.892242,453.340515 379.325806,450.445953 376.094269,447.637329 
	C369.996704,442.337799 364.364380,436.505981 358.474060,430.964111 
	C353.406128,426.195984 351.155975,420.440582 350.660980,413.450226 
	C349.356171,395.023285 368.453674,382.790192 383.077667,389.026978 
	C388.406311,391.299530 393.198578,394.829773 398.427490,397.898865 
	C398.865051,397.511597 399.468750,396.959351 400.091156,396.429108 
	C406.327637,391.116272 413.178406,386.463593 421.648773,387.279663 
	C432.478394,388.323059 440.358795,394.375885 443.855347,404.837677 
	C447.257690,415.017517 444.255615,423.854218 436.580261,431.230835 
	C430.455505,437.117157 424.253571,442.937866 418.417816,449.101959 
	C416.424957,451.206879 415.440918,454.266876 413.548248,457.703430 
	C537.080811,457.703430 658.964722,457.703430 781.044495,457.703430 
	C781.044495,455.593719 781.044495,453.779114 781.044495,451.964478 
	C781.044495,408.134949 781.032104,364.305420 781.090942,320.475983 
	C781.093201,318.775726 781.198303,316.467407 782.239624,315.475006 
	C789.236633,308.806854 796.652405,302.577484 803.636414,295.896423 
	C811.323853,288.542419 819.414917,281.431580 826.009888,273.161896 
	C833.369751,263.933075 832.625793,253.112259 827.219788,242.997910 
	C821.930786,233.102570 810.063904,226.955475 799.486755,229.013351 
	C793.147583,230.246719 787.163147,233.303329 780.990845,235.550812 
	C780.990845,186.153137 780.990845,135.765594 780.990845,84.847092 
	C660.466003,84.847092 540.307312,84.847092 419.086243,84.847092 
	C420.743408,82.983284 421.612305,81.850822 422.635468,80.881058 
	C428.238312,75.570602 434.086304,70.501785 439.463623,64.973969 
	C450.762665,53.358524 450.840240,37.273865 441.037720,25.642971 
	C431.111511,13.865370 414.440948,12.117925 402.117859,21.466927 
	C398.842560,23.951727 396.969940,23.799519 393.802765,21.386572 
	C383.263428,13.357081 368.789612,13.721141 358.735748,21.796022 
	C348.571747,29.959366 344.555603,44.258984 350.827026,56.012512 
	C354.438141,62.780197 360.622070,68.225410 365.904785,74.032219 
	C369.156128,77.606133 372.891785,80.739426 376.410004,84.070557 
	C376.150635,84.420998 375.891266,84.771446 375.631927,85.121887 
	C254.874710,85.121887 134.117493,85.121887 13.180634,85.121887 
	C13.180634,137.866013 13.180634,190.299194 13.180634,244.185120 
	C16.187378,242.025009 18.521095,240.459259 20.734358,238.738571 
	C28.984518,232.324463 41.351974,231.062912 48.951878,235.524780 
	C65.388863,245.174850 66.087364,265.722931 53.080177,276.710388 
	C42.706726,285.473053 33.462528,295.562378 23.524109,304.856445 
	C20.557222,307.630981 16.939714,309.709808 13.294333,312.342834 
	C13.294333,360.302124 13.294333,409.049072 13.294333,457.999817 
	C117.558861,457.999817 221.529434,457.999817 326.500000,457.999817 
z"/>
<path fill="#000000" opacity="1.000000" stroke="none" 
	d="
M326.000000,457.999817 
	C221.529434,457.999817 117.558861,457.999817 13.294333,457.999817 
	C13.294333,409.049072 13.294333,360.302124 13.294333,312.342834 
	C16.939714,309.709808 20.557222,307.630981 23.524109,304.856445 
	C33.462528,295.562378 42.706726,285.473053 53.080177,276.710388 
	C66.087364,265.722931 65.388863,245.174850 48.951878,235.524780 
	C41.351974,231.062912 28.984518,232.324463 20.734358,238.738571 
	C18.521095,240.459259 16.187378,242.025009 13.180634,244.185120 
	C13.180634,190.299194 13.180634,137.866013 13.180634,85.121887 
	C134.117493,85.121887 254.874710,85.121887 375.631927,85.121887 
	C375.891266,84.771446 376.150635,84.420998 376.410004,84.070557 
	C372.891785,80.739426 369.156128,77.606133 365.904785,74.032219 
	C360.622070,68.225410 354.438141,62.780197 350.827026,56.012512 
	C344.555603,44.258984 348.571747,29.959366 358.735748,21.796022 
	C368.789612,13.721141 383.263428,13.357081 393.802765,21.386572 
	C396.969940,23.799519 398.842560,23.951727 402.117859,21.466927 
	C414.440948,12.117925 431.111511,13.865370 441.037720,25.642971 
	C450.840240,37.273865 450.762665,53.358524 439.463623,64.973969 
	C434.086304,70.501785 428.238312,75.570602 422.635468,80.881058 
	C421.612305,81.850822 420.743408,82.983284 419.086243,84.847092 
	C540.307312,84.847092 660.466003,84.847092 780.990845,84.847092 
	C780.990845,135.765594 780.990845,186.153137 780.990845,235.550812 
	C787.163147,233.303329 793.147583,230.246719 799.486755,229.013351 
	C810.063904,226.955475 821.930786,233.102570 827.219788,242.997910 
	C832.625793,253.112259 833.369751,263.933075 826.009888,273.161896 
	C819.414917,281.431580 811.323853,288.542419 803.636414,295.896423 
	C796.652405,302.577484 789.236633,308.806854 782.239624,315.475006 
	C781.198303,316.467407 781.093201,318.775726 781.090942,320.475983 
	C781.032104,364.305420 781.044495,408.134949 781.044495,451.964478 
	C781.044495,453.779114 781.044495,455.593719 781.044495,457.703430 
	C658.964722,457.703430 537.080811,457.703430 413.548248,457.703430 
	C415.440918,454.266876 416.424957,451.206879 418.417816,449.101959 
	C424.253571,442.937866 430.455505,437.117157 436.580261,431.230835 
	C444.255615,423.854218 447.257690,415.017517 443.855347,404.837677 
	C440.358795,394.375885 432.478394,388.323059 421.648773,387.279663 
	C413.178406,386.463593 406.327637,391.116272 400.091156,396.429108 
	C399.468750,396.959351 398.865051,397.511597 398.427490,397.898865 
	C393.198578,394.829773 388.406311,391.299530 383.077667,389.026978 
	C368.453674,382.790192 349.356171,395.023285 350.660980,413.450226 
	C351.155975,420.440582 353.406128,426.195984 358.474060,430.964111 
	C364.364380,436.505981 369.996704,442.337799 376.094269,447.637329 
	C379.325806,450.445953 380.892242,453.340515 379.659698,457.999817 
	C362.078766,457.999817 344.289398,457.999817 326.000000,457.999817 
z"/>
</svg>