<svg version="1.1" id="Layer_1" xmlns="http://www.w3.org/2000/svg" xmlns:xlink="http://www.w3.org/1999/xlink" x="0px" y="0px"
	 width="100%" viewBox="0 0 817 482" enable-background="new 0 0 817 482" xml:space="preserve">
<path fill="#FFFFFF" opacity="1.000000" stroke="none" 
	d="
M516.000000,483.000000 
	C344.000000,483.000000 172.500000,483.000000 1.000000,483.000000 
	C1.000000,322.333344 1.000000,161.666672 1.000000,1.000000 
	C273.333344,1.000000 545.666687,1.000000 818.000000,1.000000 
	C818.000000,161.666672 818.000000,322.333344 818.000000,483.000000 
	C717.500000,483.000000 617.000000,483.000000 516.000000,483.000000 
M343.494171,478.999847 
	C348.151367,478.999847 352.808533,478.999847 357.246368,478.999847 
	C361.893188,468.741211 366.473297,458.740204 370.921631,448.680908 
	C371.531250,447.302307 372.220001,445.199402 371.614624,444.174866 
	C369.056549,439.845673 366.211090,435.649994 363.107635,431.690033 
	C360.273193,428.073303 358.117737,424.777222 359.622223,419.685059 
	C360.504883,416.697632 360.006897,413.079590 359.340332,409.911316 
	C358.423767,405.555084 359.960754,402.320251 362.554657,399.163116 
	C364.793121,396.438690 367.318085,393.820862 368.936920,390.745605 
	C371.508026,385.861359 375.319214,383.616455 380.623779,382.957123 
	C383.093658,382.650146 385.565674,381.673645 387.834656,380.581055 
	C392.439178,378.363678 396.790344,377.938965 401.367615,380.754333 
	C403.237549,381.904480 405.536652,382.689117 407.719727,382.934204 
	C413.723724,383.608154 418.314117,385.653687 420.509644,391.953766 
	C421.339966,394.336304 423.695770,396.274139 425.593018,398.178802 
	C428.937073,401.535980 430.757050,405.100037 429.557800,410.105835 
	C428.841675,413.094971 428.469025,416.578033 429.307068,419.439240 
	C430.885529,424.828247 429.211273,428.618103 425.381287,432.096130 
	C418.587341,438.265686 416.982697,446.056549 420.736023,454.268219 
	C424.508118,462.520874 428.308563,470.760620 431.975342,478.742065 
	C545.576660,478.742065 658.673279,478.742065 772.046875,478.742065 
	C772.046875,465.349670 772.048279,452.213531 772.046631,439.077393 
	C772.041260,395.578735 772.023071,352.080109 772.079285,308.581512 
	C772.081177,307.099823 772.826843,305.619080 773.225769,304.137878 
	C774.237488,305.361725 775.570435,306.438538 776.208801,307.833313 
	C780.355347,316.893158 784.299011,326.045959 788.459045,335.099426 
	C789.005188,336.288055 790.275330,337.411163 791.479065,337.893524 
	C791.933960,338.075836 793.357727,336.487457 793.987061,335.484802 
	C799.029236,327.452057 799.003357,327.435760 807.956726,329.033905 
	C808.119507,329.062988 808.282959,329.135010 808.442871,329.126404 
	C809.596985,329.064484 811.405701,329.386292 811.750366,328.820679 
	C812.268250,327.971039 812.085815,326.356018 811.635986,325.309296 
	C808.234436,317.395416 804.810791,309.486633 801.163818,301.683868 
	C797.865906,294.627838 799.054321,289.484344 805.012817,283.865845 
	C809.441589,279.689667 812.411743,274.856995 810.263062,268.146667 
	C809.498047,265.757721 809.518555,262.722717 810.266357,260.320709 
	C812.213013,254.067673 809.852966,249.521637 805.776611,245.134125 
	C803.589172,242.779755 801.681946,240.070770 800.103821,237.265564 
	C797.365356,232.397751 793.898743,229.107086 787.905945,228.896378 
	C785.554260,228.813721 783.188660,227.730438 780.926575,226.852371 
	C778.075012,225.745499 775.322937,224.382370 771.921509,222.857986 
	C771.921509,184.383499 771.921509,145.307785 771.921509,106.000175 
	C769.665588,106.000175 767.855530,106.000175 766.045471,106.000175 
	C659.382019,106.000175 552.718567,106.000183 446.055115,106.000168 
	C443.388519,106.000168 440.662750,106.333038 438.077850,105.873436 
	C436.558197,105.603226 434.625458,104.386635 433.972595,103.058075 
	C430.529358,96.050865 427.536102,88.824295 424.189484,81.767365 
	C420.917725,74.868233 422.133087,69.182304 427.886169,63.901474 
	C432.574188,59.598286 435.397034,54.609043 433.167572,47.774113 
	C432.440948,45.546547 432.496826,42.694004 433.199219,40.440334 
	C435.201294,34.016769 432.790466,29.320477 428.488098,24.862682 
	C426.371887,22.670067 424.512817,20.090910 423.093597,17.393988 
	C420.469482,12.407324 416.965424,9.299230 411.028687,8.872563 
	C408.218964,8.670630 405.313507,7.482737 402.788391,6.118071 
	C397.407043,3.209822 392.266418,3.032590 386.848022,5.936260 
	C384.429413,7.232388 381.725464,8.789012 379.134949,8.818608 
	C372.150055,8.898408 368.346344,12.734240 365.400208,18.382187 
	C364.220184,20.644403 362.564056,22.728096 360.822083,24.613514 
	C356.595154,29.188496 353.628998,33.868027 355.803192,40.616760 
	C356.607941,43.114689 355.722748,46.141342 355.696533,48.927689 
	C355.675690,51.141750 355.156372,53.638023 355.986633,55.508068 
	C357.338257,58.552399 359.248352,61.540173 361.566895,63.925823 
	C367.196503,69.718391 368.233704,74.328888 364.914459,81.599632 
	C361.940094,88.114876 358.722443,94.549080 356.260681,101.257065 
	C354.778961,105.294540 352.534393,106.083992 348.603790,106.080528 
	C235.607269,105.980957 122.610649,106.000175 9.614051,106.000175 
	C7.838534,106.000175 6.063017,106.000175 4.213948,106.000175 
	C4.213948,149.425613 4.213948,192.353363 4.213948,235.473007 
	C11.038707,237.376328 17.884336,238.803741 24.310591,241.307510 
	C26.995007,242.353394 28.917404,245.578918 30.949440,248.011246 
	C32.905788,250.352997 34.243271,253.275772 36.412083,255.361572 
	C40.009197,258.820984 41.818340,262.324615 40.403553,267.529785 
	C39.608803,270.453735 39.510715,274.001404 40.412910,276.852173 
	C41.823826,281.310425 40.099018,284.446808 37.790581,287.716644 
	C34.790493,291.966187 31.669548,296.141022 28.906605,300.540192 
	C28.174723,301.705505 28.086945,303.737671 28.543556,305.087677 
	C29.405970,307.637421 30.955526,309.945679 32.081635,312.417084 
	C35.129700,319.106567 38.105480,325.828979 41.719822,333.900299 
	C32.873653,329.461334 28.281878,332.825226 25.506681,340.750183 
	C21.680862,331.976898 18.274252,324.236633 14.928387,316.470154 
	C12.128256,309.970459 9.731638,308.384857 4.286795,309.502655 
	C4.286795,365.942841 4.286795,422.361786 4.286795,478.999847 
	C117.214104,478.999847 229.854950,478.999847 343.494171,478.999847 
z"/>
<path fill="#000000" opacity="1.000000" stroke="none" 
	d="
M342.994995,478.999847 
	C229.854950,478.999847 117.214104,478.999847 4.286795,478.999847 
	C4.286795,422.361786 4.286795,365.942841 4.286795,309.502655 
	C9.731638,308.384857 12.128256,309.970459 14.928387,316.470154 
	C18.274252,324.236633 21.680862,331.976898 25.506681,340.750183 
	C28.281878,332.825226 32.873653,329.461334 41.719822,333.900299 
	C38.105480,325.828979 35.129700,319.106567 32.081635,312.417084 
	C30.955526,309.945679 29.405970,307.637421 28.543556,305.087677 
	C28.086945,303.737671 28.174723,301.705505 28.906605,300.540192 
	C31.669548,296.141022 34.790493,291.966187 37.790581,287.716644 
	C40.099018,284.446808 41.823826,281.310425 40.412910,276.852173 
	C39.510715,274.001404 39.608803,270.453735 40.403553,267.529785 
	C41.818340,262.324615 40.009197,258.820984 36.412083,255.361572 
	C34.243271,253.275772 32.905788,250.352997 30.949440,248.011246 
	C28.917404,245.578918 26.995007,242.353394 24.310591,241.307510 
	C17.884336,238.803741 11.038707,237.376328 4.213948,235.473007 
	C4.213948,192.353363 4.213948,149.425613 4.213948,106.000175 
	C6.063017,106.000175 7.838534,106.000175 9.614051,106.000175 
	C122.610649,106.000175 235.607269,105.980957 348.603790,106.080528 
	C352.534393,106.083992 354.778961,105.294540 356.260681,101.257065 
	C358.722443,94.549080 361.940094,88.114876 364.914459,81.599632 
	C368.233704,74.328888 367.196503,69.718391 361.566895,63.925823 
	C359.248352,61.540173 357.338257,58.552399 355.986633,55.508068 
	C355.156372,53.638023 355.675690,51.141750 355.696533,48.927689 
	C355.722748,46.141342 356.607941,43.114689 355.803192,40.616760 
	C353.628998,33.868027 356.595154,29.188496 360.822083,24.613514 
	C362.564056,22.728096 364.220184,20.644403 365.400208,18.382187 
	C368.346344,12.734240 372.150055,8.898408 379.134949,8.818608 
	C381.725464,8.789012 384.429413,7.232388 386.848022,5.936260 
	C392.266418,3.032590 397.407043,3.209822 402.788391,6.118071 
	C405.313507,7.482737 408.218964,8.670630 411.028687,8.872563 
	C416.965424,9.299230 420.469482,12.407324 423.093597,17.393988 
	C424.512817,20.090910 426.371887,22.670067 428.488098,24.862682 
	C432.790466,29.320477 435.201294,34.016769 433.199219,40.440334 
	C432.496826,42.694004 432.440948,45.546547 433.167572,47.774113 
	C435.397034,54.609043 432.574188,59.598286 427.886169,63.901474 
	C422.133087,69.182304 420.917725,74.868233 424.189484,81.767365 
	C427.536102,88.824295 430.529358,96.050865 433.972595,103.058075 
	C434.625458,104.386635 436.558197,105.603226 438.077850,105.873436 
	C440.662750,106.333038 443.388519,106.000168 446.055115,106.000168 
	C552.718567,106.000183 659.382019,106.000175 766.045471,106.000175 
	C767.855530,106.000175 769.665588,106.000175 771.921509,106.000175 
	C771.921509,145.307785 771.921509,184.383499 771.921509,222.857986 
	C775.322937,224.382370 778.075012,225.745499 780.926575,226.852371 
	C783.188660,227.730438 785.554260,228.813721 787.905945,228.896378 
	C793.898743,229.107086 797.365356,232.397751 800.103821,237.265564 
	C801.681946,240.070770 803.589172,242.779755 805.776611,245.134125 
	C809.852966,249.521637 812.213013,254.067673 810.266357,260.320709 
	C809.518555,262.722717 809.498047,265.757721 810.263062,268.146667 
	C812.411743,274.856995 809.441589,279.689667 805.012817,283.865845 
	C799.054321,289.484344 797.865906,294.627838 801.163818,301.683868 
	C804.810791,309.486633 808.234436,317.395416 811.635986,325.309296 
	C812.085815,326.356018 812.268250,327.971039 811.750366,328.820679 
	C811.405701,329.386292 809.596985,329.064484 808.442871,329.126404 
	C808.282959,329.135010 808.119507,329.062988 807.956726,329.033905 
	C799.003357,327.435760 799.029236,327.452057 793.987061,335.484802 
	C793.357727,336.487457 791.933960,338.075836 791.479065,337.893524 
	C790.275330,337.411163 789.005188,336.288055 788.459045,335.099426 
	C784.299011,326.045959 780.355347,316.893158 776.208801,307.833313 
	C775.570435,306.438538 774.237488,305.361725 773.225769,304.137878 
	C772.826843,305.619080 772.081177,307.099823 772.079285,308.581512 
	C772.023071,352.080109 772.041260,395.578735 772.046631,439.077393 
	C772.048279,452.213531 772.046875,465.349670 772.046875,478.742065 
	C658.673279,478.742065 545.576660,478.742065 431.975342,478.742065 
	C428.308563,470.760620 424.508118,462.520874 420.736023,454.268219 
	C416.982697,446.056549 418.587341,438.265686 425.381287,432.096130 
	C429.211273,428.618103 430.885529,424.828247 429.307068,419.439240 
	C428.469025,416.578033 428.841675,413.094971 429.557800,410.105835 
	C430.757050,405.100037 428.937073,401.535980 425.593018,398.178802 
	C423.695770,396.274139 421.339966,394.336304 420.509644,391.953766 
	C418.314117,385.653687 413.723724,383.608154 407.719727,382.934204 
	C405.536652,382.689117 403.237549,381.904480 401.367615,380.754333 
	C396.790344,377.938965 392.439178,378.363678 387.834656,380.581055 
	C385.565674,381.673645 383.093658,382.650146 380.623779,382.957123 
	C375.319214,383.616455 371.508026,385.861359 368.936920,390.745605 
	C367.318085,393.820862 364.793121,396.438690 362.554657,399.163116 
	C359.960754,402.320251 358.423767,405.555084 359.340332,409.911316 
	C360.006897,413.079590 360.504883,416.697632 359.622223,419.685059 
	C358.117737,424.777222 360.273193,428.073303 363.107635,431.690033 
	C366.211090,435.649994 369.056549,439.845673 371.614624,444.174866 
	C372.220001,445.199402 371.531250,447.302307 370.921631,448.680908 
	C366.473297,458.740204 361.893188,468.741211 357.246368,478.999847 
	C352.808533,478.999847 348.151367,478.999847 342.994995,478.999847 
M744.574524,285.135193 
	C746.576660,289.810699 748.501648,294.322052 754.386475,295.643005 
	C759.086060,296.697937 763.515930,298.968170 768.219910,299.984314 
	C770.851746,300.552826 773.871460,299.984589 776.584106,299.356781 
	C780.168213,298.527283 783.567810,296.910278 787.146973,296.047455 
	C791.332275,295.038544 794.725464,293.283356 796.994812,289.406616 
	C798.847656,286.241425 800.855408,283.076538 803.304993,280.374329 
	C806.293091,277.078217 807.493469,273.760620 806.639160,269.259308 
	C806.010437,265.946747 806.028870,262.314545 806.674133,259.003113 
	C807.645569,254.017624 805.960632,250.445755 802.552368,247.097443 
	C800.525269,245.106064 798.201294,242.943893 797.277588,240.398727 
	C795.213196,234.710617 790.958618,232.911484 785.649353,231.987823 
	C783.140137,231.551300 780.517212,230.895096 778.330383,229.658432 
	C773.697998,227.038773 769.369873,227.287766 764.784851,229.650650 
	C762.690430,230.730026 760.354980,231.652481 758.041931,231.935333 
	C752.417908,232.623123 748.141357,234.624954 745.873901,240.346863 
	C744.838501,242.959625 742.794556,245.381195 740.680664,247.312119 
	C736.963562,250.707550 735.228577,254.248932 736.595886,259.450073 
	C737.368164,262.387787 737.513428,265.911072 736.635376,268.769562 
	C735.071472,273.860931 737.109680,277.325989 740.246704,280.699310 
	C741.485718,282.031616 742.796448,283.297211 744.574524,285.135193 
M429.883728,34.072220 
	C428.408936,31.756105 427.038788,29.364122 425.429688,27.145390 
	C423.849518,24.966511 421.288483,23.221342 420.454742,20.833122 
	C418.330353,14.747828 413.874054,12.744174 408.104889,11.951016 
	C405.762054,11.628914 403.332733,10.841425 401.288361,9.665074 
	C396.680542,7.013708 392.339325,7.288543 387.758667,9.646819 
	C385.664856,10.724792 383.333679,11.657273 381.023254,11.936365 
	C375.399078,12.615758 371.122955,14.611776 368.852173,20.329206 
	C367.813995,22.943150 365.783600,25.376905 363.665955,27.301077 
	C359.935120,30.691042 358.267853,34.231564 359.548065,39.434006 
	C360.306702,42.516830 359.626160,45.960838 359.542267,49.241150 
	C359.496643,51.024261 358.580963,53.310013 359.369110,54.502075 
	C363.625458,60.940083 368.291840,67.107056 372.820679,73.364700 
	C372.916565,73.497208 373.039368,73.652420 373.182617,73.702415 
	C380.173584,76.142639 387.103119,78.799355 394.209961,80.837669 
	C395.904114,81.323578 398.195679,79.751884 400.205688,79.105644 
	C403.403931,78.077393 406.537659,76.753883 409.805908,76.061157 
	C414.211761,75.127304 417.719177,73.321838 420.034851,69.236580 
	C421.761322,66.190773 424.141663,63.519028 425.916168,60.495998 
	C427.503601,57.791599 429.502228,54.927021 429.827148,51.969200 
	C430.445038,46.344193 429.997437,40.602135 429.883728,34.072220 
M751.670715,298.876068 
	C750.158630,298.823395 747.545410,298.261444 747.298950,298.794159 
	C743.364929,307.299561 739.733398,315.944885 735.973572,324.696350 
	C745.964722,323.628326 745.964722,323.628326 751.745605,332.040222 
	C756.059021,322.411041 760.316284,312.907104 765.095825,302.237305 
	C760.828247,301.134674 756.675110,300.061584 751.670715,298.876068 
M803.011963,324.040558 
	C804.279602,324.315277 805.547241,324.589996 807.501587,325.013519 
	C803.099121,315.190857 799.076782,306.216278 795.241211,297.658539 
	C790.282898,298.857361 786.012024,299.848145 781.765015,300.932251 
	C779.145081,301.601044 778.315002,303.110596 779.527344,305.738586 
	C783.522278,314.397736 787.424744,323.099548 791.474243,332.031006 
	C794.501770,328.340546 795.344849,322.057251 803.011963,324.040558 
M427.017120,97.442520 
	C424.001648,90.674820 420.986176,83.907112 418.232422,77.726814 
	C414.266205,78.591774 411.078278,79.265656 407.900604,79.984749 
	C402.493317,81.208374 400.374084,82.301674 403.371307,87.674263 
	C406.604279,93.469429 408.918762,99.777000 411.697968,106.004578 
	C417.826538,105.268944 423.797424,104.552238 429.804993,103.831139 
	C429.172363,102.303596 428.300842,100.199310 427.017120,97.442520 
M381.326019,79.987984 
	C377.893036,79.250122 374.460052,78.512253 370.830048,77.732048 
	C368.886047,82.067978 366.902313,86.463470 364.943268,90.869949 
	C362.921783,95.416893 360.924377,99.974541 359.113220,104.081245 
	C363.614014,104.399147 367.889343,104.709175 372.165955,105.000679 
	C375.686218,105.240623 378.586761,105.371254 380.032898,100.687126 
	C381.884369,94.690208 384.992218,89.081177 387.770020,82.829369 
	C385.900024,81.887917 384.035736,80.949348 381.326019,79.987984 
z"/>
<path fill="#FBFBFB" opacity="1.000000" stroke="none" 
	d="
M744.324524,284.864166 
	C742.796448,283.297211 741.485718,282.031616 740.246704,280.699310 
	C737.109680,277.325989 735.071472,273.860931 736.635376,268.769562 
	C737.513428,265.911072 737.368164,262.387787 736.595886,259.450073 
	C735.228577,254.248932 736.963562,250.707550 740.680664,247.312119 
	C742.794556,245.381195 744.838501,242.959625 745.873901,240.346863 
	C748.141357,234.624954 752.417908,232.623123 758.041931,231.935333 
	C760.354980,231.652481 762.690430,230.730026 764.784851,229.650650 
	C769.369873,227.287766 773.697998,227.038773 778.330383,229.658432 
	C780.517212,230.895096 783.140137,231.551300 785.649353,231.987823 
	C790.958618,232.911484 795.213196,234.710617 797.277588,240.398727 
	C798.201294,242.943893 800.525269,245.106064 802.552368,247.097443 
	C805.960632,250.445755 807.645569,254.017624 806.674133,259.003113 
	C806.028870,262.314545 806.010437,265.946747 806.639160,269.259308 
	C807.493469,273.760620 806.293091,277.078217 803.304993,280.374329 
	C800.855408,283.076538 798.847656,286.241425 796.994812,289.406616 
	C794.725464,293.283356 791.332275,295.038544 787.146973,296.047455 
	C783.567810,296.910278 780.168213,298.527283 776.584106,299.356781 
	C773.871460,299.984589 770.851746,300.552826 768.219910,299.984314 
	C763.515930,298.968170 759.086060,296.697937 754.386475,295.643005 
	C748.501648,294.322052 746.576660,289.810699 744.324524,284.864166 
M797.965820,256.886505 
	C797.734619,256.448486 797.431274,256.033539 797.282776,255.569092 
	C792.764648,241.435394 778.041199,233.567703 763.086487,238.193604 
	C750.437073,242.106445 741.093018,256.704407 744.979492,270.706787 
	C749.250732,286.095551 763.915405,294.453033 780.033752,289.966370 
	C793.417664,286.240845 801.970215,270.482788 797.965820,256.886505 
z"/>
<path fill="#FCFCFC" opacity="1.000000" stroke="none" 
	d="
M429.937988,34.490452 
	C429.997437,40.602135 430.445038,46.344193 429.827148,51.969200 
	C429.502228,54.927021 427.503601,57.791599 425.916168,60.495998 
	C424.141663,63.519028 421.761322,66.190773 420.034851,69.236580 
	C417.719177,73.321838 414.211761,75.127304 409.805908,76.061157 
	C406.537659,76.753883 403.403931,78.077393 400.205688,79.105644 
	C398.195679,79.751884 395.904114,81.323578 394.209961,80.837669 
	C387.103119,78.799355 380.173584,76.142639 373.182617,73.702415 
	C373.039368,73.652420 372.916565,73.497208 372.820679,73.364700 
	C368.291840,67.107056 363.625458,60.940083 359.369110,54.502075 
	C358.580963,53.310013 359.496643,51.024261 359.542267,49.241150 
	C359.626160,45.960838 360.306702,42.516830 359.548065,39.434006 
	C358.267853,34.231564 359.935120,30.691042 363.665955,27.301077 
	C365.783600,25.376905 367.813995,22.943150 368.852173,20.329206 
	C371.122955,14.611776 375.399078,12.615758 381.023254,11.936365 
	C383.333679,11.657273 385.664856,10.724792 387.758667,9.646819 
	C392.339325,7.288543 396.680542,7.013708 401.288361,9.665074 
	C403.332733,10.841425 405.762054,11.628914 408.104889,11.951016 
	C413.874054,12.744174 418.330353,14.747828 420.454742,20.833122 
	C421.288483,23.221342 423.849518,24.966511 425.429688,27.145390 
	C427.038788,29.364122 428.408936,31.756105 429.937988,34.490452 
M368.846832,35.518375 
	C368.567108,40.656185 367.091370,46.083206 368.249664,50.873272 
	C370.886414,61.777237 378.368774,68.942245 389.531555,70.847336 
	C400.542908,72.726585 410.261810,69.335419 416.785400,59.888653 
	C423.407928,50.298649 424.046143,39.927464 417.728821,29.903446 
	C411.838074,20.556374 402.933960,15.997590 391.908478,17.101896 
	C380.873077,18.207193 373.191193,24.387302 368.846832,35.518375 
z"/>
<path fill="#FBFBFB" opacity="1.000000" stroke="none" 
	d="
M752.096313,298.932281 
	C756.675110,300.061584 760.828247,301.134674 765.095825,302.237305 
	C760.316284,312.907104 756.059021,322.411041 751.745605,332.040222 
	C745.964722,323.628326 745.964722,323.628326 735.973572,324.696350 
	C739.733398,315.944885 743.364929,307.299561 747.298950,298.794159 
	C747.545410,298.261444 750.158630,298.823395 752.096313,298.932281 
z"/>
<path fill="#FBFBFB" opacity="1.000000" stroke="none" 
	d="
M802.584229,324.025085 
	C795.344849,322.057251 794.501770,328.340546 791.474243,332.031006 
	C787.424744,323.099548 783.522278,314.397736 779.527344,305.738586 
	C778.315002,303.110596 779.145081,301.601044 781.765015,300.932251 
	C786.012024,299.848145 790.282898,298.857361 795.241211,297.658539 
	C799.076782,306.216278 803.099121,315.190857 807.501587,325.013519 
	C805.547241,324.589996 804.279602,324.315277 802.584229,324.025085 
z"/>
<path fill="#FCFCFC" opacity="1.000000" stroke="none" 
	d="
M427.223206,97.768768 
	C428.300842,100.199310 429.172363,102.303596 429.804993,103.831139 
	C423.797424,104.552238 417.826538,105.268944 411.697968,106.004578 
	C408.918762,99.777000 406.604279,93.469429 403.371307,87.674263 
	C400.374084,82.301674 402.493317,81.208374 407.900604,79.984749 
	C411.078278,79.265656 414.266205,78.591774 418.232422,77.726814 
	C420.986176,83.907112 424.001648,90.674820 427.223206,97.768768 
z"/>
<path fill="#FCFCFC" opacity="1.000000" stroke="none" 
	d="
M381.748749,79.999382 
	C384.035736,80.949348 385.900024,81.887917 387.770020,82.829369 
	C384.992218,89.081177 381.884369,94.690208 380.032898,100.687126 
	C378.586761,105.371254 375.686218,105.240623 372.165955,105.000679 
	C367.889343,104.709175 363.614014,104.399147 359.113220,104.081245 
	C360.924377,99.974541 362.921783,95.416893 364.943268,90.869949 
	C366.902313,86.463470 368.886047,82.067978 370.830048,77.732048 
	C374.460052,78.512253 377.893036,79.250122 381.748749,79.999382 
z"/>
<path fill="#090909" opacity="1.000000" stroke="none" 
	d="
M798.002563,257.303864 
	C801.970215,270.482788 793.417664,286.240845 780.033752,289.966370 
	C763.915405,294.453033 749.250732,286.095551 744.979492,270.706787 
	C741.093018,256.704407 750.437073,242.106445 763.086487,238.193604 
	C778.041199,233.567703 792.764648,241.435394 797.282776,255.569092 
	C797.431274,256.033539 797.734619,256.448486 798.002563,257.303864 
M795.012207,262.702850 
	C794.716492,261.430237 794.317810,260.171722 794.141174,258.882782 
	C792.744385,248.686691 781.828613,238.729446 767.485779,241.183914 
	C756.720337,243.026169 748.859192,250.633728 748.142151,263.450745 
	C747.409058,276.552917 758.282043,287.167053 771.505249,287.423706 
	C785.178711,287.689117 795.488770,275.672089 795.012207,262.702850 
z"/>
<path fill="#070707" opacity="1.000000" stroke="none" 
	d="
M368.914917,35.124634 
	C373.191193,24.387302 380.873077,18.207193 391.908478,17.101896 
	C402.933960,15.997590 411.838074,20.556374 417.728821,29.903446 
	C424.046143,39.927464 423.407928,50.298649 416.785400,59.888653 
	C410.261810,69.335419 400.542908,72.726585 389.531555,70.847336 
	C378.368774,68.942245 370.886414,61.777237 368.249664,50.873272 
	C367.091370,46.083206 368.567108,40.656185 368.914917,35.124634 
M403.857697,65.764420 
	C404.562531,65.344780 405.257690,64.907814 405.973663,64.508141 
	C416.077972,58.867622 420.876892,46.176601 416.447510,35.660011 
	C411.418243,23.719114 400.612457,18.618135 389.107025,21.383911 
	C374.574219,24.877436 368.463470,39.004883 372.021790,50.661041 
	C376.011658,63.730755 390.060455,70.729454 403.857697,65.764420 
z"/>
<path fill="#FEFEFE" opacity="1.000000" stroke="none" 
	d="
M795.012573,263.139038 
	C795.488770,275.672089 785.178711,287.689117 771.505249,287.423706 
	C758.282043,287.167053 747.409058,276.552917 748.142151,263.450745 
	C748.859192,250.633728 756.720337,243.026169 767.485779,241.183914 
	C781.828613,238.729446 792.744385,248.686691 794.141174,258.882782 
	C794.317810,260.171722 794.716492,261.430237 795.012573,263.139038 
z"/>
<path fill="#FEFEFE" opacity="1.000000" stroke="none" 
	d="
M403.465149,65.880898 
	C390.060455,70.729454 376.011658,63.730755 372.021790,50.661041 
	C368.463470,39.004883 374.574219,24.877436 389.107025,21.383911 
	C400.612457,18.618135 411.418243,23.719114 416.447510,35.660011 
	C420.876892,46.176601 416.077972,58.867622 405.973663,64.508141 
	C405.257690,64.907814 404.562531,65.344780 403.465149,65.880898 
z"/>
</svg>